<svg width="56" height="56" viewBox="0 0 56 56" fill="none" xmlns="http://www.w3.org/2000/svg">
<path d="M40.5 9.25H49.875C50.7038 9.25 51.4987 9.57924 52.0847 10.1653C52.6708 10.7513 53 11.5462 53 12.375V46.75C53 48.4076 52.3415 49.9973 51.1694 51.1694C49.9973 52.3415 48.4076 53 46.75 53M46.75 53C45.0924 53 43.5027 52.3415 42.3306 51.1694C41.1585 49.9973 40.5 48.4076 40.5 46.75V6.125C40.5 5.2962 40.1708 4.50134 39.5847 3.91529C38.9987 3.32924 38.2038 3 37.375 3H6.125C5.2962 3 4.50134 3.32924 3.91529 3.91529C3.32924 4.50134 3 5.2962 3 6.125V43.625C3 46.1114 3.98772 48.496 5.74587 50.2541C7.50403 52.0123 9.8886 53 12.375 53H46.75ZM15.5 15.5H28M15.5 28H28M15.5 40.5H28" stroke="#FDF7F2" stroke-width="5" stroke-linecap="round" stroke-linejoin="round"/>
</svg>
