<svg width="50" height="46" viewBox="0 0 50 46" fill="none" xmlns="http://www.w3.org/2000/svg">
<path d="M38.2152 28.4048C37.4173 25.5123 35.6925 22.9615 33.3053 21.1437C30.9181 19.3259 28.0005 18.3415 25 18.3415C21.9995 18.3415 19.0818 19.3259 16.6946 21.1437C14.3075 22.9615 12.5826 25.5123 11.7847 28.4048L9.88325 35.2977C9.54185 36.5353 9.49091 37.835 9.73442 39.0956C9.97792 40.3561 10.5093 41.5433 11.2871 42.5647C12.0649 43.5861 13.068 44.4141 14.2184 44.984C15.3688 45.554 16.6353 45.8505 17.9191 45.8505H32.0808C33.3647 45.8505 34.6311 45.554 35.7815 44.984C36.9319 44.4141 37.9351 43.5861 38.7129 42.5647C39.4907 41.5433 40.022 40.3561 40.2655 39.0956C40.509 37.835 40.4581 36.5353 40.1167 35.2977L38.2152 28.4048ZM36.0602 40.5442C35.5955 41.1593 34.994 41.6577 34.3033 42C33.6126 42.3422 32.8517 42.5189 32.0808 42.5161H17.9191C17.1488 42.5161 16.3889 42.3382 15.6987 41.9962C15.0084 41.6543 14.4065 41.1575 13.9398 40.5446C13.4731 39.9318 13.1543 39.2194 13.0082 38.4631C12.8621 37.7068 12.8927 36.9269 13.0975 36.1843L14.999 29.2916C15.6028 27.1026 16.9082 25.1722 18.7147 23.7966C20.5213 22.4209 22.7293 21.6759 25 21.6759C27.2707 21.6759 29.4787 22.4209 31.2852 23.7966C33.0918 25.1722 34.3971 27.1026 35.001 29.2916L36.9024 36.1843C37.1102 36.9266 37.1422 37.7071 36.9961 38.4639C36.8499 39.2207 36.5294 39.9331 36.0602 40.5446V40.5442ZM13.5483 20.6662C13.8384 18.8531 13.4537 16.9122 12.4646 15.1995C11.4755 13.4869 9.98672 12.1832 8.27189 11.5279C6.43546 10.8266 4.56234 10.9383 2.99579 11.8423C-0.118462 13.6404 -0.938001 18.0719 1.16925 21.7211C2.15801 23.4337 3.64694 24.7377 5.36177 25.3927C6.12137 25.6888 6.92884 25.8432 7.74411 25.8481C8.75981 25.8518 9.75832 25.5862 10.6379 25.0782C12.2035 24.174 13.2372 22.6072 13.5483 20.6662ZM10.2556 20.1392C10.1066 21.0696 9.65015 21.7981 8.97045 22.1905C8.29075 22.5829 7.43172 22.6137 6.55122 22.2777C5.54954 21.8952 4.66363 21.1053 4.05655 20.0538C2.8895 18.0323 3.16688 15.5941 4.663 14.73C5.03913 14.5167 5.46506 14.4067 5.89747 14.4114C6.30308 14.4157 6.70451 14.494 7.08202 14.6424C8.0837 15.0251 8.96962 15.8149 9.57669 16.8663C10.1838 17.9178 10.4248 19.0804 10.2556 20.1392ZM13.9095 13.7584C15.0934 14.7049 16.4454 15.1978 17.8126 15.1977C18.2221 15.1975 18.6305 15.1535 19.0306 15.0663C22.5446 14.3024 24.6752 10.3311 23.7801 6.21358C23.3602 4.28108 22.3392 2.58562 20.9054 1.43931C19.37 0.211826 17.5513 -0.252805 15.7842 0.131487C12.2704 0.895279 10.1398 4.86658 11.0348 8.98407C11.4548 10.9167 12.4758 12.6121 13.9095 13.7584ZM16.4924 3.38985C16.6544 3.35494 16.8197 3.33748 16.9855 3.33775C17.6053 3.33775 18.2428 3.58022 18.8233 4.04433C19.6607 4.71382 20.2639 5.73593 20.5217 6.92246C21.0177 9.20394 20.0105 11.4414 18.3224 11.8084C17.5553 11.9752 16.7276 11.743 15.9917 11.1546C15.1542 10.485 14.551 9.46288 14.2932 8.27645C13.7971 5.99435 14.8043 3.75684 16.4924 3.38985ZM47.0042 11.8423C45.4382 10.9383 43.5642 10.8266 41.7281 11.5279C40.0132 12.183 38.5243 13.4869 37.5355 15.1995C36.5468 16.9122 36.162 18.8536 36.4519 20.6662C36.7626 22.6072 37.796 24.174 39.3623 25.0782C40.2418 25.5863 41.2403 25.852 42.256 25.8481C43.0713 25.8432 43.8788 25.6888 44.6384 25.3927C46.3532 24.7377 47.8421 23.4337 48.8309 21.7211C50.9379 18.0719 50.1184 13.6404 47.0042 11.8423ZM45.9434 20.0538C45.3363 21.1053 44.4504 21.8952 43.4487 22.2777C42.5686 22.6141 41.7094 22.5831 41.0297 22.1905C40.35 21.7979 39.8939 21.0696 39.7446 20.1392C39.5752 19.0804 39.8161 17.9183 40.4233 16.8673C41.0304 15.8163 41.9162 15.0261 42.9179 14.6433C43.2954 14.4948 43.6968 14.4163 44.1025 14.4119C44.5349 14.4072 44.9608 14.5172 45.3369 14.7305C46.8331 15.5938 47.1108 18.0318 45.9434 20.0538ZM30.9693 15.0663C31.3695 15.1535 31.7778 15.1975 32.1873 15.1977C33.5544 15.1977 34.907 14.7049 36.0905 13.7584C37.5242 12.6122 38.5451 10.9167 38.9652 8.98418C39.8602 4.86668 37.7296 0.895383 34.2157 0.131591C32.4488 -0.252493 30.6299 0.211826 29.0945 1.43942C27.6607 2.58562 26.6398 4.28118 26.2199 6.21358C25.3248 10.3311 27.4554 14.3024 30.9693 15.0663ZM29.4782 6.92194C29.736 5.73541 30.3392 4.71288 31.1767 4.04381C31.7573 3.5797 32.3947 3.33722 33.0145 3.33722C33.1802 3.33696 33.3455 3.35442 33.5076 3.38932C35.1956 3.75632 36.2028 5.99435 35.7069 8.2753C35.4489 9.46184 34.8457 10.4844 34.0084 11.1535C33.2727 11.7419 32.4454 11.974 31.6778 11.8074C29.9894 11.4409 28.9822 9.2031 29.4782 6.92194Z" fill="#1D3932"/>
</svg>
