<svg width="50" height="50" viewBox="0 0 50 50" fill="none" xmlns="http://www.w3.org/2000/svg">
<path d="M22.5 20H27.5C31.035 20 32.8025 20 33.9 21.1C35 22.1975 35 23.965 35 27.5V42.5C35 38.965 35 37.1975 36.1 36.1C37.195 35 38.9625 35 42.5 35C46.0375 35 47.8025 35 48.9 36.1C50 37.1975 50 38.965 50 42.5V50H0C0 46.465 1.49012e-07 44.6975 1.1 43.6C2.195 42.5 3.9625 42.5 7.5 42.5C11.0375 42.5 12.8025 42.5 13.9 43.6C15 44.695 15 46.4625 15 50V27.5C15 23.965 15 22.1975 16.1 21.1C17.195 20 18.9625 20 22.5 20ZM22.865 2.5575C23.815 0.85 24.29 0 25 0C25.71 0 26.185 0.85 27.135 2.5575L27.38 2.9975C27.65 3.4825 27.785 3.7225 27.995 3.8825C28.2075 4.0425 28.47 4.1025 28.995 4.22L29.47 4.33C31.315 4.7475 32.2375 4.955 32.4575 5.66C32.6775 6.365 32.0475 7.1025 30.79 8.5725L30.465 8.9525C30.1075 9.37 29.9275 9.5775 29.8475 9.8375C29.7675 10.0975 29.795 10.375 29.8475 10.9325L29.8975 11.44C30.0875 13.4025 30.1825 14.385 29.61 14.82C29.035 15.2575 28.17 14.8575 26.4425 14.0625L25.9975 13.8575C25.505 13.6325 25.26 13.5175 25 13.5175C24.74 13.5175 24.495 13.6325 24.0025 13.8575L23.5575 14.0625C21.83 14.8575 20.965 15.2575 20.39 14.82C19.815 14.385 19.9125 13.4025 20.1025 11.44L20.1525 10.9325C20.205 10.375 20.2325 10.0975 20.1525 9.8375C20.0725 9.5775 19.8925 9.37 19.535 8.9525L19.21 8.5725C17.9525 7.1025 17.3225 6.3675 17.5425 5.66C17.7625 4.955 18.685 4.7475 20.53 4.33L21.005 4.22C21.53 4.1025 21.7925 4.045 22.005 3.8825C22.215 3.7225 22.35 3.4825 22.62 2.9975L22.865 2.5575Z" fill="#FDF7F2"/>
</svg>
