<svg width="55" height="38" viewBox="0 0 55 38" fill="none" xmlns="http://www.w3.org/2000/svg">
<path fill-rule="evenodd" clip-rule="evenodd" d="M25.4937 10.3446C19.2129 8.66171 13.2742 9.86818 8.99041 11.4321C7.20811 12.0798 5.48076 12.8698 3.8251 13.7945C3.19968 14.1445 2.58779 14.5182 1.99075 14.9147L1.8828 14.9893L1.85219 15.0069L1.84172 15.0171L1.8356 15.0206L0.736139 15.8022L1.20109 17.0669L1.20686 17.084L1.22192 17.1242L1.27689 17.276L1.4943 17.8151C2.64664 20.5741 4.05806 23.2175 5.70962 25.71C8.67747 30.1577 13.3277 35.3142 19.7755 37.0392C26.0786 38.7255 31.8498 37.469 35.9794 35.8432C37.7675 35.1398 39.4883 34.276 41.1206 33.2623L39.6551 30.724L21.0561 25.7429L21.9729 22.3267L37.1598 26.3948L28.5663 11.5105C27.5808 11.0193 26.5554 10.6287 25.4937 10.3446ZM34.0529 13.9455L40.5152 25.1385L43.2978 18.0272L46.5849 19.31L42.7753 29.053L44.1666 31.4629C45.2934 30.8301 46.3755 30.1209 47.4054 29.3402C49.9809 27.3761 53.0216 24.2954 54.1585 20.0588C55.3041 15.7806 53.9835 11.0831 52.5728 7.6854C51.7169 5.64074 50.6874 3.67318 49.4956 1.80426L49.433 1.70993L49.4153 1.67935L49.4087 1.675L48.6054 0.495555L47.2866 1.02451L47.2744 1.03158L47.2433 1.04137L47.1444 1.08215L46.7817 1.23853C44.9713 2.05313 43.2327 3.01872 41.5844 4.12504C38.7213 6.07162 35.2366 9.13963 34.2236 13.2516L34.1718 13.4446L34.0529 13.9455Z" fill="#00AA6A"/>
</svg>
