<svg width="50" height="35" viewBox="0 0 50 35" fill="none" xmlns="http://www.w3.org/2000/svg">
<path d="M15 17.5C19.8359 17.5 23.75 13.5859 23.75 8.75C23.75 3.91406 19.8359 0 15 0C10.1641 0 6.25 3.91406 6.25 8.75C6.25 13.5859 10.1641 17.5 15 17.5ZM21 20H20.3516C18.7266 20.7812 16.9219 21.25 15 21.25C13.0781 21.25 11.2812 20.7812 9.64844 20H9C4.03125 20 0 24.0313 0 29V31.25C0 33.3203 1.67969 35 3.75 35H26.25C28.3203 35 30 33.3203 30 31.25V29C30 24.0313 25.9687 20 21 20ZM37.5 17.5C41.6406 17.5 45 14.1406 45 10C45 5.85938 41.6406 2.5 37.5 2.5C33.3594 2.5 30 5.85938 30 10C30 14.1406 33.3594 17.5 37.5 17.5ZM41.25 20H40.9531C39.8672 20.375 38.7188 20.625 37.5 20.625C36.2812 20.625 35.1328 20.375 34.0469 20H33.75C32.1563 20 30.6875 20.4609 29.3984 21.2031C31.3047 23.2578 32.5 25.9844 32.5 29V32C32.5 32.1719 32.4609 32.3359 32.4531 32.5H46.25C48.3203 32.5 50 30.8203 50 28.75C50 23.9141 46.0859 20 41.25 20Z" fill="#FDF7F2"/>
</svg>
