<svg width="50" height="50" viewBox="0 0 50 50" fill="none" xmlns="http://www.w3.org/2000/svg">
<path d="M30.0184 2.68126C32.4938 4.11018 34.6344 6.05277 36.2961 8.37829C37.9579 10.7038 39.1021 13.3583 39.652 16.1631C40.2019 18.9679 40.1446 21.858 39.4839 24.6388C38.8233 27.4196 37.5746 30.0266 35.822 32.2844L49.2978 45.7602C49.7535 46.232 50.0056 46.8639 49.9999 47.5198C49.9942 48.1757 49.7311 48.8031 49.2673 49.2669C48.8035 49.7307 48.1761 49.9938 47.5202 49.9995C46.8643 50.0052 46.2324 49.7531 45.7606 49.2974L32.2823 35.8216C29.3241 38.1175 25.7811 39.5374 22.0561 39.9198C18.331 40.3023 14.5734 39.6319 11.2105 37.9849C7.84747 36.338 5.01403 33.7805 3.03228 30.6033C1.05052 27.426 -5.27685e-05 23.7565 1.98791e-09 20.0119L0.012508 19.299C0.135568 15.8487 1.14913 12.489 2.95468 9.54631C4.76023 6.60363 7.29635 4.17811 10.3166 2.50548C13.3368 0.832841 16.7383 -0.0300057 20.1906 0.000796706C23.6429 0.0315991 27.0286 0.955003 30.0184 2.68126ZM20.0123 25.015C19.3996 25.0151 18.8082 25.24 18.3503 25.6472C17.8925 26.0543 17.6 26.6153 17.5283 27.2238L17.5108 27.5415C17.5115 28.1791 17.7556 28.7924 18.1933 29.256C18.631 29.7196 19.2292 29.9986 19.8657 30.036C20.5022 30.0734 21.1289 29.8663 21.6179 29.457C22.1068 29.0478 22.421 28.4673 22.4963 27.8342L22.5138 27.5165C22.5138 26.8531 22.2503 26.2168 21.7811 25.7477C21.312 25.2785 20.6757 25.015 20.0123 25.015ZM15.2594 12.1996C14.8482 12.6836 14.6365 13.3059 14.6673 13.9402C14.698 14.5745 14.9688 15.1734 15.4248 15.6154C15.8808 16.0574 16.4878 16.3094 17.1228 16.3203C17.7578 16.3313 18.3731 16.1003 18.8441 15.6742L19.0642 15.4491C19.2004 15.2891 19.3747 15.1659 19.571 15.091C19.7674 15.0161 19.9794 14.9919 20.1876 15.0205C20.3958 15.0492 20.5933 15.1299 20.7621 15.2551C20.9309 15.3803 21.0654 15.546 21.1532 15.737C21.241 15.9279 21.2793 16.1378 21.2645 16.3474C21.2498 16.5571 21.1824 16.7596 21.0687 16.9363C20.955 17.113 20.7987 17.2583 20.614 17.3586C20.4294 17.4589 20.2224 17.5111 20.0123 17.5104C19.3488 17.5097 18.7123 17.7726 18.2427 18.2413C17.7731 18.7099 17.5089 19.346 17.5083 20.0094C17.5076 20.6729 17.7705 21.3094 18.2392 21.779C18.7078 22.2486 19.3438 22.5128 20.0073 22.5134C21.0568 22.5141 22.0895 22.2506 23.0105 21.7473C23.9314 21.244 24.7108 20.517 25.277 19.6333C25.8431 18.7496 26.1778 17.7377 26.2501 16.6907C26.3225 15.6437 26.1302 14.5953 25.6909 13.6422C25.2517 12.6891 24.5796 11.8618 23.7367 11.2366C22.8938 10.6114 21.907 10.2084 20.8675 10.0647C19.8279 9.92096 18.7688 10.0412 17.7879 10.4143C16.807 10.7874 15.9357 11.4014 15.2544 12.1996" fill="#FDF7F2"/>
</svg>
