<svg width="40" height="50" viewBox="0 0 40 50" fill="none" xmlns="http://www.w3.org/2000/svg">
<path fill-rule="evenodd" clip-rule="evenodd" d="M8.75 12.5V11.25C8.75 8.26631 9.93527 5.40483 12.045 3.29505C14.1548 1.18526 17.0163 0 20 0C22.9837 0 25.8452 1.18526 27.955 3.29505C30.0647 5.40483 31.25 8.26631 31.25 11.25V12.5H37.5C38.88 12.5 40 13.6225 40 15.0175V45.02C40 47.77 37.7625 50 35.015 50H4.985C3.66376 50 2.39656 49.4755 1.46184 48.5417C0.527114 47.6079 0.00132521 46.3412 0 45.02V15.02C0 13.625 1.1125 12.5 2.5 12.5H8.75ZM12.5 12.5H27.5V11.25C27.5 9.26088 26.7098 7.35322 25.3033 5.9467C23.8968 4.54018 21.9891 3.75 20 3.75C18.0109 3.75 16.1032 4.54018 14.6967 5.9467C13.2902 7.35322 12.5 9.26088 12.5 11.25V12.5ZM8.75 12.5V22.5H12.5V12.5H8.75ZM27.5 12.5V22.5H31.25V12.5H27.5Z" fill="#FDF7F2"/>
</svg>
